<svg width="20" height="17" viewBox="0 0 20 17" fill="none" xmlns="http://www.w3.org/2000/svg">
<g id="Group 664">
<path id="Vector" d="M4.4 0.0375L18.3 3.7375H14.4L4.7 1.1375L4 3.7375H3L3.9 0.3375C3.9 0.0375 4.2 -0.0625 4.4 0.0375ZM6 9.7375H4V10.7375H6V9.7375ZM6.5 8.7375C6.8 8.7375 7 8.9375 7 9.2375V11.2375C7 11.5375 6.8 11.7375 6.5 11.7375H3.5C3.2 11.7375 3 11.5375 3 11.2375V9.2375C3 8.9375 3.2 8.7375 3.5 8.7375H6.5ZM19 4.7375H1V15.7375H19V4.7375ZM19.5 3.7375C19.8 3.7375 20 3.9375 20 4.2375V16.2375C20 16.5375 19.8 16.7375 19.5 16.7375H0.5C0.2 16.7375 2.34375e-08 16.5375 0 16.2375V4.2375C0 3.9375 0.2 3.7375 0.5 3.7375H19.5Z" fill="#404B63"/>
</g>
</svg>
