<svg width="20" height="19" viewBox="0 0 20 19" fill="none" xmlns="http://www.w3.org/2000/svg">
<g id="Group 666">
<path id="Vector" d="M3.39286 17.5H16.6071C16.903 17.5 17.1429 17.7399 17.1429 18.0357C17.1429 18.3316 16.903 18.5714 16.6071 18.5714H3.39286C3.097 18.5714 2.85714 18.3316 2.85714 18.0357C2.85714 17.7399 3.097 17.5 3.39286 17.5ZM18.5714 0C19.3604 0 20 0.639607 20 1.42857V13.2143C20 14.0033 19.3604 14.6429 18.5714 14.6429H1.42857C0.639607 14.6429 0 14.0033 0 13.2143V1.42857C0 0.639607 0.639607 0 1.42857 0H18.5714ZM18.5714 1.07143H1.42857C1.23132 1.07143 1.07143 1.23132 1.07143 1.42857V13.2143C1.07143 13.4115 1.23132 13.5714 1.42857 13.5714H5.17857V9.82143C5.17857 9.52557 5.41843 9.28571 5.71429 9.28571C6.01014 9.28571 6.25 9.52557 6.25 9.82143V13.5714H9.46429V4.10714C9.46429 3.81129 9.70414 3.57143 10 3.57143C10.2959 3.57143 10.5357 3.81129 10.5357 4.10714V13.5714H13.75V6.96429C13.75 6.66843 13.9899 6.42857 14.2857 6.42857C14.5816 6.42857 14.8214 6.66843 14.8214 6.96429V13.5714H18.5714C18.7687 13.5714 18.9286 13.4115 18.9286 13.2143V1.42857C18.9286 1.23132 18.7687 1.07143 18.5714 1.07143Z" fill="#404B63"/>
</g>
</svg>
