<svg width="20" height="20" viewBox="0 0 20 20" fill="none" xmlns="http://www.w3.org/2000/svg">
<g id="Group 721">
<path id="Vector" d="M7.10526 0H18.1579C18.6465 6.54317e-09 19.115 0.194078 19.4605 0.53954C19.8059 0.885002 20 1.35355 20 1.84211V12.8947C20 13.3833 19.8059 13.8518 19.4605 14.1973C19.115 14.5428 18.6465 14.7368 18.1579 14.7368H7.10526C6.61671 14.7368 6.14816 14.5428 5.8027 14.1973C5.45724 13.8518 5.26316 13.3833 5.26316 12.8947V1.84211C5.26316 1.35355 5.45724 0.885002 5.8027 0.53954C6.14816 0.194078 6.61671 0 7.10526 0ZM7.10526 1.57895C7.03547 1.57895 6.96853 1.60667 6.91918 1.65602C6.86983 1.70538 6.84211 1.77231 6.84211 1.84211V12.8947C6.84211 12.9293 6.84891 12.9635 6.86214 12.9954C6.87536 13.0274 6.89475 13.0564 6.91918 13.0808C6.94362 13.1053 6.97263 13.1246 7.00456 13.1379C7.03649 13.1511 7.0707 13.1579 7.10526 13.1579H18.1579C18.2277 13.1579 18.2946 13.1302 18.344 13.0808C18.3933 13.0315 18.4211 12.9645 18.4211 12.8947V1.84211C18.4211 1.77231 18.3933 1.70538 18.344 1.65602C18.2946 1.60667 18.2277 1.57895 18.1579 1.57895H7.10526ZM13.1579 16.3158C13.1579 16.1064 13.2411 15.9056 13.3891 15.7575C13.5372 15.6095 13.738 15.5263 13.9474 15.5263C14.1567 15.5263 14.3576 15.6095 14.5056 15.7575C14.6537 15.9056 14.7368 16.1064 14.7368 16.3158V18.1579C14.7368 18.6465 14.5428 19.115 14.1973 19.4605C13.8518 19.8059 13.3833 20 12.8947 20H1.84211C1.35355 20 0.885002 19.8059 0.53954 19.4605C0.194078 19.115 6.54317e-09 18.6465 0 18.1579V7.10526C0 6.61671 0.194078 6.14816 0.53954 5.8027C0.885002 5.45724 1.35355 5.26316 1.84211 5.26316H3.68421C3.89359 5.26316 4.0944 5.34633 4.24245 5.49439C4.39051 5.64245 4.47368 5.84325 4.47368 6.05263C4.47368 6.26201 4.39051 6.46282 4.24245 6.61087C4.0944 6.75893 3.89359 6.84211 3.68421 6.84211H1.84211C1.77231 6.84211 1.70538 6.86983 1.65602 6.91918C1.60667 6.96853 1.57895 7.03547 1.57895 7.10526V18.1579C1.57895 18.2277 1.60667 18.2946 1.65602 18.344C1.70538 18.3933 1.77231 18.4211 1.84211 18.4211H12.8947C12.9645 18.4211 13.0315 18.3933 13.0808 18.344C13.1302 18.2946 13.1579 18.2277 13.1579 18.1579V16.3158Z" fill="#4183FF"/>
</g>
</svg>
