<svg width="20" height="20" viewBox="0 0 20 20" fill="none" xmlns="http://www.w3.org/2000/svg">
<g id="Group 665">
<path id="Vector" d="M10 0C8.02219 0 6.08879 0.58649 4.4443 1.6853C2.79981 2.78412 1.51809 4.3459 0.761209 6.17316C0.00433285 8.00043 -0.1937 10.0111 0.192152 11.9509C0.578004 13.8907 1.53041 15.6725 2.92894 17.0711C4.32746 18.4696 6.10929 19.422 8.0491 19.8078C9.98891 20.1937 11.9996 19.9957 13.8268 19.2388C15.6541 18.4819 17.2159 17.2002 18.3147 15.5557C19.4135 13.9112 20 11.9778 20 10C20 8.68678 19.7413 7.38642 19.2388 6.17316C18.7362 4.95991 17.9997 3.85752 17.0711 2.92893C16.1425 2.00035 15.0401 1.26375 13.8268 0.761205C12.6136 0.258658 11.3132 0 10 0ZM10 18.9474C8.23038 18.9474 6.5005 18.4226 5.02911 17.4395C3.55772 16.4563 2.41092 15.0589 1.73371 13.424C1.05651 11.7891 0.879321 9.99007 1.22456 8.25445C1.56979 6.51884 2.42195 4.92457 3.67326 3.67325C4.92457 2.42194 6.51884 1.56979 8.25446 1.22455C9.99008 0.879316 11.7891 1.0565 13.424 1.73371C15.0589 2.41091 16.4563 3.55772 17.4395 5.02911C18.4226 6.50049 18.9474 8.23038 18.9474 10C18.9474 12.373 18.0047 14.6488 16.3267 16.3267C14.6488 18.0047 12.373 18.9474 10 18.9474Z" fill="#272636"/>
<path id="Vector_2" d="M14.0842 8.17359H7.36844L8.42107 7.24202C8.4736 7.19709 8.51677 7.14226 8.54811 7.08065C8.57944 7.01904 8.59834 6.95186 8.60372 6.88295C8.60909 6.81404 8.60084 6.74475 8.57944 6.67902C8.55803 6.6133 8.5239 6.55244 8.47897 6.49991C8.43404 6.44738 8.37921 6.40422 8.3176 6.37288C8.256 6.34154 8.18882 6.32264 8.11991 6.31727C8.051 6.31189 7.9817 6.32014 7.91598 6.34155C7.85026 6.36295 7.78939 6.39709 7.73686 6.44202L5.55792 8.29991C5.53223 8.32742 5.50931 8.35739 5.4895 8.38938L5.43686 8.46307C5.43432 8.49284 5.43432 8.52277 5.43686 8.55254C5.43444 8.58934 5.43444 8.62627 5.43686 8.66307V8.73675C5.43439 8.7718 5.43439 8.80697 5.43686 8.84202C5.45301 8.87708 5.47239 8.91055 5.49476 8.94202C5.50315 8.96407 5.51372 8.98523 5.52634 9.00517C5.56625 9.04568 5.61246 9.07945 5.66318 9.10517L5.70002 9.13149C5.76779 9.16237 5.84134 9.17851 5.91581 9.17886H14.0842C14.2238 9.17886 14.3577 9.12341 14.4564 9.0247C14.5551 8.926 14.6105 8.79213 14.6105 8.65254C14.6105 8.51295 14.5551 8.37908 14.4564 8.28038C14.3577 8.18168 14.2238 8.12623 14.0842 8.12623V8.17359ZM14.6 11.2262C14.6025 11.1912 14.6025 11.156 14.6 11.121C14.5839 11.0859 14.5645 11.0524 14.5421 11.021C14.5337 10.9989 14.5232 10.9777 14.5105 10.9578C14.4831 10.9304 14.4532 10.9058 14.4211 10.8841L14.3421 10.8368C14.3148 10.8256 14.2867 10.8168 14.2579 10.8104C14.2195 10.805 14.1805 10.805 14.1421 10.8104H5.91581C5.77622 10.8104 5.64235 10.8659 5.54365 10.9646C5.44495 11.0633 5.3895 11.1972 5.3895 11.3368C5.3895 11.4763 5.44495 11.6102 5.54365 11.7089C5.64235 11.8076 5.77622 11.8631 5.91581 11.8631H12.6579L11.579 12.7578C11.5264 12.8027 11.4833 12.8576 11.4519 12.9192C11.4206 12.9808 11.4017 13.048 11.3963 13.1169C11.391 13.1858 11.3992 13.2551 11.4206 13.3208C11.442 13.3865 11.4761 13.4474 11.5211 13.4999C11.566 13.5524 11.6208 13.5956 11.6824 13.6269C11.744 13.6583 11.8112 13.6772 11.8801 13.6826C11.949 13.6879 12.0183 13.6797 12.0841 13.6583C12.1498 13.6369 12.2107 13.6027 12.2632 13.5578L14.4421 11.6999C14.4678 11.6724 14.4907 11.6424 14.5105 11.6104L14.5632 11.5368C14.5657 11.507 14.5657 11.477 14.5632 11.4473C14.5656 11.4105 14.5656 11.3736 14.5632 11.3368C14.5632 11.3368 14.6 11.2525 14.6 11.2262Z" fill="#272636"/>
</g>
</svg>
