<svg width="36" height="29" viewBox="0 0 36 29" fill="none" xmlns="http://www.w3.org/2000/svg">
<g id="Group 708">
<path id="Vector" d="M35.9311 21.1351V6.18985L28.1335 13.9898L35.9311 21.1328M22.7704 19.3505C22.141 19.9836 21.3922 20.4855 20.5674 20.8273C19.7427 21.1691 18.8583 21.344 17.9655 21.3418C16.1511 21.3418 14.4423 20.6344 13.1584 19.3505L8.97588 15.1657L0 23.3929V24.7709C0 26.5739 1.46536 28.0393 3.26605 28.0393H32.6651C34.4657 28.0393 35.9311 26.5739 35.9311 24.7732V23.3492L26.9759 15.1451L22.7727 19.3482" fill="#4183FF"/>
<path id="Vector_2" d="M32.7317 0H3.33265C1.53426 0 0.0712007 1.46536 0.0712007 3.26605V3.94819L14.3825 18.2641C15.3587 19.238 16.6564 19.7754 18.0345 19.7754C19.4148 19.7754 20.7125 19.238 21.6864 18.2641L36 3.94819V3.26605C36 1.46536 34.53 0 32.7317 0ZM0 6.18987V21.1765L7.8183 14.0105L0 6.18987Z" fill="#4183FF"/>
</g>
</svg>
