<svg width="30" height="30" viewBox="0 0 30 30" fill="none" xmlns="http://www.w3.org/2000/svg">
<g id="Frame">
<path id="Vector" d="M15.3868 5.80961C15.1348 5.97367 14.9415 6.2139 14.8331 6.49515C14.7218 6.85843 14.7393 7.24515 14.877 7.59964C14.9913 7.97171 15.2198 8.29691 15.5274 8.53129C15.6856 8.64261 15.8673 8.71293 16.0606 8.73636C16.254 8.7598 16.4473 8.72757 16.6202 8.63968C16.8253 8.52543 16.9893 8.34671 17.086 8.13285C17.1798 7.91605 17.2325 7.68461 17.2384 7.45023C17.2589 7.1514 17.2208 6.85257 17.127 6.56839C17.0245 6.25785 16.8253 5.99125 16.5557 5.80961C16.418 5.72171 16.2657 5.66312 16.1046 5.63968C15.9434 5.61625 15.7794 5.63382 15.627 5.69242C15.5421 5.72757 15.46 5.77152 15.3839 5.82425" fill="white"/>
<path id="Vector_2" d="M23.7361 17.7686C23.5867 16.9395 23.3523 16.128 23.0388 15.3487C22.825 14.7686 22.5349 14.2178 22.1746 13.7139C21.8113 13.2305 21.3513 12.8233 20.9968 12.334C20.8093 12.0791 20.6511 11.795 20.4548 11.5459C20.3757 11.3819 20.2996 11.2178 20.2234 11.0538C19.989 10.5411 19.7752 10.0166 19.4968 9.53031C19.4529 9.45414 19.406 9.37797 19.3621 9.30473C19.3269 8.83598 19.2771 8.36723 19.2507 7.89848C19.2712 6.95805 19.1921 6.01469 19.0134 5.08891C18.8904 4.64653 18.7029 4.22172 18.4568 3.835C18.1697 3.37797 17.8005 2.97953 17.367 2.6602C16.6609 2.15922 15.8171 1.88969 14.9529 1.88676C14.3171 1.87211 13.6873 2.01567 13.1218 2.30864C12.5271 2.63383 12.0466 3.13481 11.7449 3.74125C11.4636 4.35356 11.3142 5.01567 11.3054 5.68949C11.282 6.3516 11.3435 7.00785 11.3699 7.66996C11.3963 8.35551 11.3816 9.04399 11.4373 9.72953C11.4548 9.94926 11.4812 10.169 11.4812 10.3916C11.4812 10.503 11.4754 10.6143 11.4724 10.7227L11.4636 10.7461C11.1648 11.253 10.8338 11.7422 10.4734 12.208C10.2214 12.5274 9.96949 12.8438 9.71461 13.1573C9.38355 13.5293 9.1023 13.9424 8.87965 14.3877C8.73023 14.7745 8.61012 15.1729 8.51637 15.5772L8.50758 15.6094C8.36695 16.0752 8.19117 16.5264 7.98023 16.9629C7.95973 17.0039 7.93922 17.0479 7.92164 17.086C7.79566 17.3467 7.66383 17.6075 7.52613 17.8623L7.36793 18.1582C7.26832 18.337 7.18043 18.5215 7.10426 18.709C7.06031 18.8233 7.02516 18.9405 7.00465 19.0606C6.96656 19.3155 6.98414 19.5733 7.05152 19.8194C7.06617 19.8809 7.08668 19.9424 7.10719 20.0039C7.17164 20.1856 7.24781 20.3643 7.33863 20.5342C7.37965 20.6133 7.42359 20.6895 7.46461 20.7686L7.5027 20.8243C7.54371 20.8975 7.58766 20.9707 7.6316 21.0411L7.63746 21.0498C7.68727 21.1319 7.74293 21.211 7.79566 21.2901L7.80445 21.3018C7.86012 21.378 7.91578 21.4571 7.97438 21.5332C8.19117 22.3799 8.58961 23.168 9.13746 23.8477C9.0525 23.9971 8.97633 24.1436 8.89137 24.2901C8.59254 24.7237 8.34645 25.1895 8.15602 25.6788C8.07691 25.9307 8.05641 26.1973 8.10035 26.458C8.14137 26.7217 8.27613 26.959 8.48121 27.1319C8.61891 27.2373 8.77711 27.3106 8.9441 27.3457C9.11109 27.3809 9.28394 27.3985 9.4568 27.3897C10.1072 27.3399 10.7517 27.211 11.3728 27.0118C11.7478 26.9122 12.1228 26.8243 12.5037 26.7481C12.8992 26.6573 13.3005 26.6016 13.7048 26.584C13.8045 26.587 13.9041 26.5811 14.0007 26.5752C14.2761 26.6045 14.5515 26.6163 14.8298 26.6045L14.9324 26.5987C15.0027 26.6075 15.0759 26.6104 15.1492 26.6163C15.6355 26.6426 16.1189 26.6924 16.5994 26.7657C17.0212 26.8301 17.4431 26.9122 17.8591 27.0147C18.5007 27.208 19.1599 27.337 19.8308 27.3926C20.0066 27.4014 20.1824 27.3868 20.3582 27.3516C20.531 27.3164 20.6951 27.2403 20.8357 27.1348C21.0408 26.9649 21.1755 26.7276 21.2195 26.4639C21.2634 26.2032 21.2429 25.9366 21.1638 25.6846C20.9705 25.1954 20.7214 24.7295 20.4168 24.2989C20.3113 24.1202 20.2117 23.9356 20.1062 23.7569C20.5603 23.25 20.9617 22.6934 21.2986 22.1016C21.5037 22.1133 21.7058 22.0899 21.9021 22.0254C22.4148 21.8526 22.8601 21.5186 23.1707 21.0733C23.2644 20.9414 23.3377 20.795 23.3816 20.6397C23.5837 20.3262 23.7214 19.9747 23.7859 19.6055C23.8796 18.9961 23.865 18.3721 23.742 17.7686H23.7361Z" fill="#020204"/>
<path id="Vector_3" d="M12.4687 9.46879C12.3779 9.58597 12.3135 9.72367 12.2812 9.86722C12.249 10.0108 12.2285 10.1602 12.2256 10.3067C12.2344 10.6026 12.2109 10.8985 12.1523 11.1885C12.0498 11.4903 11.8945 11.7686 11.6953 12.0176C11.3525 12.4483 11.083 12.9317 10.8984 13.4473C10.8047 13.7666 10.7724 14.1006 10.8076 14.4346C10.4531 14.959 10.1455 15.5157 9.89061 16.0957C9.49803 16.9717 9.24608 17.9063 9.14354 18.8614C9.01756 20.0362 9.19042 21.2227 9.64159 22.3125C9.97264 23.0977 10.4765 23.8008 11.1152 24.3662C11.4433 24.6504 11.8037 24.8907 12.1904 25.0811C13.5586 25.7491 15.1611 25.7344 16.5146 25.0401C17.1914 24.6446 17.8096 24.1553 18.3486 23.5899C18.6973 23.2735 19.0078 22.919 19.2803 22.5323C19.7344 21.7442 20.001 20.8594 20.0566 19.9512C20.3379 18.3809 20.165 16.7637 19.5615 15.2871C19.3242 14.795 19.0107 14.3438 18.6299 13.9512C18.5273 13.2626 18.3281 12.5919 18.0381 11.959C17.8271 11.5049 17.5723 11.0713 17.376 10.6055C17.2969 10.4151 17.2265 10.2217 17.1387 10.0371C17.0537 9.84964 16.9365 9.67679 16.793 9.53031C16.6377 9.38675 16.4531 9.27836 16.251 9.21683C16.0488 9.15238 15.8408 9.11722 15.6299 9.11136C15.208 9.09086 14.7832 9.14359 14.3672 9.12894C14.0303 9.11429 13.6992 9.0557 13.3623 9.07621C13.1953 9.085 13.0283 9.11722 12.873 9.17875C12.7148 9.24027 12.5771 9.33988 12.4687 9.47171M12.6035 5.80668C12.4453 5.81839 12.2959 5.88578 12.1816 5.99418C12.0674 6.10257 11.9824 6.24027 11.9355 6.38968C11.8564 6.69437 11.8359 7.01371 11.8799 7.32718C11.8857 7.61136 11.9355 7.89554 12.0293 8.16507C12.082 8.29691 12.1582 8.41996 12.2578 8.5225C12.3574 8.62503 12.4834 8.70121 12.6211 8.73636C12.7529 8.76859 12.8906 8.76273 13.0166 8.72171C13.1426 8.6807 13.2598 8.61039 13.3535 8.51664C13.4912 8.37601 13.5908 8.20316 13.6406 8.01566C13.6904 7.82816 13.7139 7.63187 13.708 7.43558C13.708 7.19242 13.6699 6.94925 13.5967 6.71488C13.5234 6.4805 13.3974 6.26664 13.2275 6.08793C13.1455 6.00296 13.0517 5.92972 12.9463 5.87699C12.8379 5.82718 12.7207 5.80082 12.6035 5.80668ZM15.3867 5.80668C15.1348 5.97074 14.9414 6.21097 14.833 6.49222C14.7217 6.8555 14.7392 7.24222 14.8769 7.59671C14.9912 7.96878 15.2197 8.29398 15.5273 8.52836C15.6855 8.63968 15.8672 8.71 16.0605 8.73343C16.2539 8.75687 16.4473 8.72464 16.6201 8.63675C16.8252 8.5225 16.9892 8.34378 17.0859 8.12992C17.1797 7.91312 17.2324 7.68168 17.2383 7.4473C17.2588 7.14847 17.2207 6.84964 17.1269 6.56546C17.0244 6.25492 16.8252 5.98832 16.5556 5.80668C16.418 5.71878 16.2656 5.66019 16.1045 5.63675C15.9433 5.61332 15.7793 5.63089 15.6269 5.68949C15.542 5.72464 15.4599 5.76859 15.3838 5.82132" fill="white"/>
<path id="Vector_4" d="M15.9522 6.55073C15.8584 6.55659 15.7706 6.58588 15.6914 6.63569C15.6123 6.68549 15.545 6.75288 15.4922 6.82905C15.3926 6.98432 15.337 7.16596 15.334 7.35346C15.3252 7.49116 15.3457 7.63178 15.3897 7.76362C15.4336 7.89545 15.5157 8.01264 15.6211 8.10053C15.7325 8.19135 15.8672 8.24409 16.0108 8.25288C16.1543 8.25874 16.295 8.22065 16.4122 8.13862C16.5059 8.07123 16.5821 7.98627 16.6348 7.88373C16.6875 7.78413 16.7198 7.6728 16.7344 7.56147C16.7637 7.36225 16.7286 7.15717 16.6407 6.97846C16.5498 6.79682 16.3946 6.65913 16.2071 6.58588C16.125 6.55366 16.0401 6.54194 15.9522 6.54487" fill="#020204"/>
<path id="Vector_5" d="M12.6033 5.80964C12.4451 5.82136 12.2957 5.88875 12.1814 5.99714C12.0671 6.10554 11.9822 6.24324 11.9353 6.39265C11.8562 6.69734 11.8357 7.01667 11.8796 7.33015C11.8855 7.61433 11.9353 7.89851 12.0291 8.16804C12.0818 8.30281 12.158 8.42292 12.2576 8.52546C12.3572 8.628 12.4832 8.70417 12.6209 8.73933C12.7527 8.77156 12.8904 8.7657 13.0164 8.72468C13.1423 8.68367 13.2595 8.61335 13.3533 8.5196C13.491 8.37898 13.5906 8.20613 13.6404 8.01863C13.6902 7.83113 13.7136 7.63484 13.7078 7.43855C13.7078 7.19539 13.6697 6.95222 13.5964 6.71785C13.5232 6.48347 13.3972 6.2696 13.2273 6.09089C13.1453 6.00593 13.0515 5.93269 12.946 5.87996C12.8377 5.83015 12.7205 5.80378 12.6033 5.80964Z" fill="white"/>
<path id="Vector_6" d="M12.2255 7.11336C12.1874 7.30965 12.1962 7.51473 12.2577 7.70516C12.3046 7.83113 12.3749 7.94539 12.4686 8.04207C12.5272 8.10652 12.5946 8.16219 12.6737 8.20027C12.7528 8.24129 12.8407 8.25301 12.9286 8.2325C13.0077 8.21199 13.0751 8.16512 13.1249 8.10066C13.1747 8.03621 13.2098 7.96297 13.2333 7.8868C13.3007 7.65828 13.2948 7.41512 13.2216 7.1866C13.1747 7.01961 13.0839 6.86726 12.955 6.75301C12.8934 6.70027 12.8173 6.65926 12.7382 6.63875C12.6561 6.61824 12.5712 6.6241 12.4921 6.65926C12.41 6.70027 12.3427 6.76766 12.3016 6.84969C12.2606 6.93172 12.2343 7.01961 12.2225 7.11043" fill="#020204"/>
<path id="Vector_7" d="M11.8535 9.57715C11.8594 9.60352 11.8682 9.62988 11.8828 9.65039C11.9092 9.69141 11.9414 9.72363 11.9824 9.75C12.0205 9.77637 12.0586 9.7998 12.0967 9.82324C12.2988 9.96094 12.4775 10.1309 12.6211 10.3301C12.7969 10.6055 13.0166 10.8516 13.2656 11.0625C13.4561 11.1943 13.6787 11.2734 13.9102 11.2939C14.1797 11.3145 14.4521 11.2822 14.7129 11.2002C14.9531 11.1299 15.1846 11.0303 15.4014 10.8984C15.7734 10.5996 16.1719 10.3359 16.5938 10.1162C16.6934 10.0811 16.793 10.0547 16.8867 10.0107C16.9834 9.96973 17.0654 9.89941 17.1152 9.80566C17.1475 9.71191 17.168 9.6123 17.1709 9.5127C17.1855 9.40723 17.2207 9.30469 17.2383 9.19922C17.2617 9.09375 17.2529 8.98535 17.2148 8.88281C17.1738 8.80371 17.1094 8.73926 17.0303 8.69824C16.9512 8.66016 16.8633 8.63672 16.7754 8.63379C16.5967 8.63965 16.4209 8.65723 16.248 8.68652C16.0137 8.70703 15.7793 8.67773 15.5449 8.68652C15.2549 8.69531 14.9648 8.75977 14.6719 8.77148C14.3379 8.78906 14.0068 8.73633 13.6729 8.72168C13.5293 8.71289 13.3828 8.71875 13.2393 8.74219C13.0957 8.76269 12.958 8.81543 12.8379 8.89746C12.7266 8.98535 12.624 9.0791 12.5244 9.17871C12.4717 9.22559 12.4131 9.2666 12.3516 9.29883C12.2871 9.33105 12.2197 9.34863 12.1465 9.3457C12.1113 9.33984 12.0732 9.33984 12.0381 9.3457C12.0176 9.35449 11.9971 9.36621 11.9824 9.38086L11.9385 9.43359C11.9092 9.47754 11.8828 9.52441 11.8623 9.57129" fill="#D99A03"/>
<path id="Vector_8" d="M12.5889 8.83896C12.4717 8.90927 12.3574 8.98544 12.2432 9.06455C12.1816 9.10263 12.1318 9.15244 12.0937 9.21396C12.0732 9.26084 12.0645 9.31064 12.0674 9.36044C12.0703 9.41025 12.0703 9.46005 12.0674 9.50986C12.0645 9.54209 12.0527 9.57724 12.0527 9.6124C12.0527 9.62998 12.0527 9.64755 12.0586 9.6622C12.0645 9.67978 12.0703 9.69443 12.082 9.70615C12.0967 9.7208 12.1172 9.73251 12.1406 9.73837C12.1611 9.74423 12.1846 9.74716 12.208 9.75302C12.3105 9.78232 12.4043 9.83798 12.4805 9.91123C12.5596 9.98154 12.6299 10.0636 12.7148 10.131C12.9492 10.3067 13.2334 10.3976 13.5234 10.3946C13.8135 10.3888 14.1006 10.3477 14.3789 10.2745C14.5986 10.2276 14.8154 10.169 15.0264 10.0958C15.3545 9.97275 15.6562 9.79404 15.917 9.56259C16.0312 9.45126 16.1514 9.35166 16.2803 9.26084C16.3975 9.18759 16.5352 9.13779 16.6523 9.06748C16.6641 9.06162 16.6729 9.05283 16.6846 9.04697C16.6934 9.03818 16.7021 9.02939 16.708 9.01767C16.7168 8.99716 16.7168 8.97373 16.708 8.95322C16.7021 8.93271 16.6934 8.91513 16.6816 8.90048C16.667 8.88291 16.6494 8.86533 16.6318 8.85068C16.4971 8.75107 16.3359 8.69541 16.1689 8.68955C15.999 8.67783 15.8379 8.68955 15.6738 8.65732C15.5215 8.62509 15.3721 8.58115 15.2256 8.52841C15.0703 8.47861 14.9121 8.44052 14.748 8.41416C14.3672 8.35263 13.9805 8.36142 13.6025 8.44345C13.248 8.52255 12.9053 8.65732 12.5889 8.83896Z" fill="#604405"/>
<path id="Vector_9" d="M12.5508 8.44041C12.3809 8.55466 12.2285 8.69529 12.0967 8.85349C12.0205 8.94138 11.959 9.04392 11.918 9.15525C11.8916 9.24314 11.874 9.33396 11.8594 9.42478C11.8506 9.45701 11.8447 9.49216 11.8447 9.52732C11.8447 9.5449 11.8477 9.56248 11.8535 9.57712C11.8594 9.5947 11.8682 9.60935 11.8799 9.62107C11.9004 9.64158 11.9268 9.6533 11.9561 9.65916C11.9824 9.66502 12.0117 9.66501 12.041 9.66794C12.1699 9.68845 12.29 9.74119 12.3955 9.81736C12.501 9.8906 12.6006 9.97556 12.709 10.0459C12.9551 10.1924 13.2363 10.2715 13.5234 10.2773C13.8105 10.2832 14.0947 10.2539 14.373 10.1924C14.5957 10.1513 14.8154 10.0898 15.0293 10.0078C15.3486 9.87009 15.6475 9.69138 15.9199 9.47459C16.0459 9.38084 16.1689 9.28123 16.2832 9.17283C16.3213 9.13474 16.3594 9.09666 16.4004 9.0615C16.4414 9.02634 16.4883 8.99998 16.5381 8.9824C16.6172 8.96189 16.6992 8.95896 16.7812 8.97947C16.8398 8.99412 16.9014 8.99998 16.9629 8.99998C16.9951 8.99998 17.0244 8.99412 17.0537 8.98533C17.083 8.97361 17.1094 8.95603 17.127 8.93259C17.1533 8.90037 17.165 8.86228 17.165 8.82127C17.165 8.78025 17.1533 8.74216 17.1328 8.70701C17.0889 8.63962 17.0215 8.58689 16.9482 8.55759C16.8457 8.51658 16.7402 8.48435 16.6318 8.46384C16.3008 8.38474 15.9785 8.26755 15.6738 8.11521C15.5215 8.03904 15.3779 7.95701 15.2256 7.87791C15.0732 7.79294 14.915 7.7197 14.751 7.66697C14.373 7.56443 13.9717 7.58201 13.6055 7.7197C13.1953 7.86326 12.8291 8.11228 12.5479 8.44334" fill="#F5BD0C"/>
<path id="Vector_10" d="M14.4581 7.97457C14.4786 8.04196 14.584 8.03024 14.6456 8.05953C14.7071 8.08883 14.7422 8.14449 14.8008 8.15035C14.8623 8.15621 14.9473 8.12985 14.9561 8.07418C14.9678 7.99801 14.8565 7.95114 14.7862 7.92477C14.6924 7.88082 14.587 7.87789 14.4932 7.91891C14.4727 7.9277 14.4522 7.95407 14.4581 7.97457ZM13.4502 7.93942C13.3711 7.91305 13.2422 8.05074 13.2803 8.12399C13.292 8.14449 13.3272 8.16793 13.3506 8.15621C13.3741 8.14449 13.418 8.06539 13.4561 8.03903C13.4854 8.01559 13.4795 7.94821 13.4502 7.93942Z" fill="#CD8907"/>
<path id="Vector_11" d="M26.0068 24.3105C25.9483 24.4628 25.8633 24.6035 25.7578 24.7294C25.5117 24.9931 25.2129 25.2041 24.8848 25.3505C24.3281 25.6084 23.7861 25.8955 23.2588 26.2089C22.916 26.4375 22.5967 26.6953 22.3008 26.9824C22.0576 27.2373 21.7969 27.4716 21.5215 27.6914C21.2344 27.9023 20.9033 28.0459 20.5518 28.1015C20.1211 28.1572 19.6846 28.0898 19.2891 27.9111C19.0049 27.8027 18.7588 27.6123 18.5859 27.3603C18.4395 27.0908 18.3721 26.789 18.3867 26.4843C18.4043 25.9482 18.4688 25.415 18.5801 24.8877C18.6563 24.4482 18.7324 24.0087 18.7793 23.5664C18.8613 22.7578 18.8701 21.9462 18.8086 21.1377C18.794 21.0029 18.794 20.8652 18.8086 20.7304C18.8262 20.455 19.0576 20.2441 19.3359 20.247C19.4619 20.2441 19.5879 20.2558 19.7109 20.2793C20.0039 20.3144 20.2969 20.3642 20.584 20.4316C20.7627 20.4785 20.9414 20.5429 21.1201 20.5927C21.419 20.6806 21.7354 20.707 22.0459 20.6777C22.3711 20.6015 22.7022 20.5517 23.0361 20.5224C23.1738 20.5283 23.3115 20.5517 23.4404 20.5927C23.5752 20.6308 23.7012 20.6982 23.8037 20.7949C23.877 20.874 23.9356 20.9648 23.9736 21.0644C24.0293 21.2138 24.0645 21.3691 24.0762 21.5273C24.082 21.6679 24.0938 21.8085 24.1113 21.9492C24.1611 22.1748 24.2695 22.3857 24.4219 22.5615C24.5772 22.7314 24.7442 22.8896 24.9258 23.0302C25.0986 23.1826 25.2803 23.3232 25.4707 23.4521C25.5615 23.5136 25.6524 23.5693 25.7373 23.6367C25.8252 23.7011 25.8984 23.7832 25.9541 23.8769C26.0244 24.0058 26.0479 24.1552 26.0127 24.2988" fill="#F5BD0C"/>
<path id="Vector_12" d="M26.007 24.3107C25.9484 24.463 25.8635 24.6036 25.758 24.7296C25.5119 24.9933 25.2131 25.2042 24.885 25.3507C24.3283 25.6085 23.7863 25.8956 23.259 26.2091C22.9162 26.4376 22.5969 26.6954 22.301 26.9825C22.0578 27.2374 21.7971 27.4718 21.5217 27.6915C21.2346 27.9025 20.9035 28.046 20.552 28.1017C20.1213 28.1573 19.6848 28.09 19.2893 27.9112C19.0051 27.8028 18.759 27.6124 18.5861 27.3605C18.4397 27.0909 18.3723 26.7892 18.3869 26.4845C18.4045 25.9484 18.469 25.4151 18.5803 24.8878C18.6565 24.4484 18.7326 24.0089 18.7795 23.5665C18.8615 22.7579 18.8703 21.9464 18.8088 21.1378C18.7941 21.003 18.7941 20.8653 18.8088 20.7306C18.8264 20.4552 19.0578 20.2442 19.3361 20.2472C19.4621 20.2442 19.5881 20.256 19.7111 20.2794C20.0041 20.3146 20.2971 20.3644 20.5842 20.4318C20.7629 20.4786 20.9416 20.5431 21.1203 20.5929C21.4191 20.6808 21.7356 20.7071 22.0461 20.6778C22.3713 20.6017 22.7023 20.5519 23.0363 20.5226C23.174 20.5284 23.3117 20.5519 23.4406 20.5929C23.5754 20.631 23.7014 20.6984 23.8039 20.795C23.8772 20.8741 23.9357 20.965 23.9738 21.0646C24.0295 21.214 24.0647 21.3693 24.0764 21.5275C24.0822 21.6681 24.094 21.8087 24.1115 21.9493C24.1613 22.1749 24.2697 22.3859 24.4221 22.5616C24.5773 22.7316 24.7443 22.8898 24.926 23.0304C25.0988 23.1827 25.2805 23.3234 25.4709 23.4523C25.5617 23.5138 25.6525 23.5694 25.7375 23.6368C25.8254 23.7013 25.8986 23.7833 25.9543 23.8771C26.0246 24.006 26.0481 24.1554 26.0129 24.2989M7.59981 19.8136C7.74336 19.7579 7.89864 19.7433 8.05098 19.7726C8.20332 19.8019 8.34688 19.8634 8.47286 19.9513C8.71602 20.1359 8.92696 20.3644 9.09395 20.6193C9.50704 21.1876 9.90254 21.7677 10.2629 22.3712C10.5559 22.8605 10.8225 23.3644 11.1594 23.8243C11.3791 24.1232 11.6281 24.4015 11.8508 24.7003C12.0822 24.9933 12.258 25.3273 12.3664 25.6817C12.4953 26.1534 12.4426 26.6544 12.2229 27.0909C12.0647 27.3956 11.8273 27.6505 11.5373 27.8263C11.2443 28.0021 10.9074 28.09 10.5647 28.0812C10.0256 28.0079 9.50411 27.8439 9.02364 27.5948C8.00118 27.1876 6.89083 27.0587 5.83614 26.7423C5.51094 26.6456 5.19454 26.5284 4.86641 26.4405C4.71993 26.4054 4.57637 26.3614 4.43575 26.3028C4.29805 26.2442 4.17793 26.1446 4.09883 26.0187C4.04024 25.9161 4.01094 25.7989 4.01387 25.6817C4.0168 25.5646 4.04024 25.4503 4.08125 25.3448C4.16036 25.1251 4.28926 24.9288 4.37422 24.712C4.50313 24.3546 4.55293 23.9708 4.52071 23.5929C4.50313 23.215 4.43575 22.837 4.41524 22.4591C4.39766 22.2892 4.40352 22.1193 4.43282 21.9523C4.47676 21.6183 4.7375 21.3517 5.07442 21.3019C5.22969 21.2755 5.38497 21.2638 5.54024 21.2726C5.69551 21.2814 5.85372 21.2814 6.00899 21.2726C6.16426 21.2638 6.31954 21.2198 6.45723 21.1466C6.58321 21.0704 6.69454 20.965 6.7795 20.8419C6.86446 20.7189 6.94063 20.5929 7.01094 20.461C7.08125 20.3292 7.16036 20.2062 7.25411 20.089C7.342 19.9689 7.46211 19.878 7.59981 19.8136Z" fill="#F5BD0C"/>
<path id="Vector_13" d="M7.59981 19.8165C7.74336 19.7609 7.89864 19.7462 8.05098 19.7755C8.20332 19.8048 8.34688 19.8663 8.47286 19.9542C8.71602 20.1388 8.92696 20.3673 9.09395 20.6222C9.50704 21.1905 9.90254 21.7706 10.2629 22.3741C10.5559 22.8634 10.8225 23.3673 11.1594 23.8273C11.3791 24.1261 11.6281 24.4044 11.8508 24.7032C12.0822 24.9962 12.258 25.3302 12.3664 25.6847C12.4953 26.1564 12.4426 26.6573 12.2229 27.0939C12.0647 27.3985 11.8273 27.6534 11.5373 27.8292C11.2443 28.005 10.9074 28.0929 10.5647 28.0841C10.0256 28.0109 9.50411 27.8468 9.02364 27.5978C8.00118 27.1905 6.89083 27.0616 5.83614 26.7452C5.51094 26.6485 5.19454 26.5314 4.86641 26.4435C4.71993 26.4083 4.57637 26.3644 4.43575 26.3058C4.29805 26.2472 4.17793 26.1476 4.09883 26.0216C4.04024 25.9191 4.01094 25.8019 4.01387 25.6847C4.0168 25.5675 4.04024 25.4532 4.08125 25.3478C4.16036 25.128 4.28926 24.9317 4.37422 24.715C4.50313 24.3575 4.55293 23.9737 4.52071 23.5958C4.50313 23.2179 4.43575 22.8429 4.41524 22.462C4.39766 22.2921 4.40352 22.1222 4.43282 21.9552C4.47676 21.6212 4.7375 21.3546 5.07442 21.3048C5.22969 21.2784 5.38497 21.2667 5.54024 21.2755C5.69551 21.2843 5.85372 21.2843 6.00899 21.2755C6.16426 21.2667 6.31954 21.2228 6.45723 21.1495C6.58321 21.0734 6.69454 20.9679 6.7795 20.8448C6.86446 20.7218 6.94063 20.5958 7.01094 20.464C7.08125 20.3321 7.16036 20.2091 7.25411 20.0919C7.342 19.9718 7.46211 19.878 7.59981 19.8165Z" fill="#F5BD0C"/>
<path id="Vector_14" d="M7.82502 20.0624C7.95393 20.0126 8.09748 20.0039 8.23225 20.0361C8.36701 20.0683 8.49299 20.1298 8.60139 20.2177C8.8094 20.3994 8.98518 20.6162 9.11701 20.8593C9.46858 21.4277 9.81135 22.0019 10.1307 22.5878C10.3621 23.0361 10.6229 23.4697 10.91 23.8828C11.1092 24.1523 11.3377 24.3984 11.5428 24.6621C11.7567 24.9228 11.9178 25.2187 12.0174 25.538C12.1346 25.957 12.0848 26.4052 11.8856 26.7949C11.7391 27.0703 11.5194 27.3017 11.2498 27.457C10.9803 27.6152 10.6697 27.6914 10.3592 27.6767C9.86994 27.6005 9.39533 27.454 8.94709 27.2402C8.05647 26.915 7.08674 26.874 6.17268 26.6191C5.84455 26.5312 5.52522 26.4111 5.19416 26.329C5.04768 26.2968 4.90119 26.2558 4.76057 26.2031C4.61994 26.1503 4.4969 26.0507 4.41487 25.9248C4.36213 25.8251 4.33576 25.7138 4.34162 25.6025C4.34748 25.4912 4.37092 25.3798 4.41194 25.2744C4.49104 25.0664 4.61701 24.8759 4.69612 24.6679C4.80744 24.3457 4.84553 24.0058 4.81037 23.666C4.78694 23.329 4.72541 22.9951 4.70783 22.6552C4.69612 22.5058 4.70198 22.3535 4.72834 22.204C4.75471 22.0546 4.82502 21.9169 4.93049 21.8056C5.05354 21.6943 5.20588 21.621 5.36994 21.6005C5.53401 21.58 5.69807 21.58 5.8592 21.6005C6.02326 21.621 6.18733 21.6269 6.35139 21.624C6.67366 21.624 6.96662 21.4365 7.10432 21.1435C7.1717 21.0117 7.2303 20.874 7.27717 20.7363C7.32698 20.5957 7.39436 20.4638 7.47346 20.3378C7.55549 20.2119 7.67268 20.1123 7.81037 20.0537" fill="#F5BD0C"/>
</g>
</svg>
