<svg width="30" height="39" viewBox="0 0 30 39" fill="none" xmlns="http://www.w3.org/2000/svg">
<path id="Vector" d="M15.0184 3.35244C18.6615 3.35244 21.6128 6.30372 21.6128 9.94679H24.9652C24.9652 4.45354 20.5117 0 15.0184 0C9.52517 0 5.07163 4.45354 5.07163 9.94679H8.42407C8.42407 6.30372 11.3795 3.35244 15.0184 3.35244ZM30 36.5821V17.9206C29.8608 16.5534 28.7311 15.4769 27.3434 15.4237H2.78756C1.25256 15.4237 0.00409333 16.668 0 18.203V36.3897C0.163733 37.6259 1.13794 38.6083 2.37004 38.7843H27.8101C28.9153 38.5632 29.7871 37.6873 30 36.5821Z" fill="#4183FF"/>
</svg>
