<svg width="36" height="36" viewBox="0 0 36 36" fill="none" xmlns="http://www.w3.org/2000/svg">
<g id="Frame">
<path id="Vector" d="M29.852 24.7815C29.8154 24.8926 29.2438 26.8864 27.8392 28.9367C26.6236 30.7053 25.3666 32.4881 23.3814 32.5194C21.429 32.5538 20.8043 31.3545 18.5752 31.3545C16.349 31.3545 15.6492 32.4881 13.8041 32.5538C11.8967 32.6318 10.429 30.6219 9.20873 28.8619C6.71494 25.2567 4.79478 18.6455 7.37002 14.2149C8.63708 11.9982 10.9145 10.5891 13.3946 10.5506C15.2635 10.5152 17.0417 11.8166 18.1768 11.8166C19.343 11.8166 21.494 10.2419 23.7633 10.4775C24.7135 10.518 27.3712 10.8747 29.0835 13.3565C28.9488 13.4482 25.9035 15.2453 25.9375 18.9028C25.9832 23.3183 29.8108 24.7665 29.852 24.7815ZM22.2783 8.11232C23.3017 6.86404 23.9741 5.14815 23.7972 3.44409C22.3361 3.5014 20.5559 4.41443 19.4979 5.6553C18.5624 6.73791 17.7379 8.48053 17.9679 10.1648C19.5913 10.2634 21.2605 9.31466 22.2783 8.11232Z" fill="#333333"/>
</g>
</svg>
