<?xml version="1.0" standalone="no"?><!DOCTYPE svg PUBLIC "-//W3C//DTD SVG 1.1//EN" "http://www.w3.org/Graphics/SVG/1.1/DTD/svg11.dtd"><svg t="1720604066235" class="icon" viewBox="0 0 1024 1024" version="1.1" xmlns="http://www.w3.org/2000/svg" p-id="1511" xmlns:xlink="http://www.w3.org/1999/xlink" width="200" height="200"><path d="M928 848c0 26.496-21.504 48-48 48H128a48 48 0 0 1 0-96h752c26.496 0 48 21.504 48 48z m0-352c0 26.496-21.504 48-48 48H128a48 48 0 0 1 0-96h752c26.496 0 48 21.504 48 48z m0-320c0 26.496-21.504 48-48 48H128A48 48 0 0 1 128 128h752c26.496 0 48 21.504 48 48z" fill="#ffffff" p-id="1512"></path></svg>