<svg width="40" height="40" viewBox="0 0 40 40" fill="none" xmlns="http://www.w3.org/2000/svg">
<g id="Group 707">
<path id="Vector" d="M29.5978 30.0568C29.5992 30.0453 29.6003 30.0337 29.6012 30.0219C29.5958 30.0261 29.5927 30.0337 29.5978 30.0568Z" fill="#F8F9FB"/>
<path id="Vector_2" d="M25.8213 16.0296C25.8213 12.5875 23.0306 9.79688 19.5889 9.79688C16.1468 9.79688 13.3564 12.5875 13.3564 16.0296C13.3564 19.4727 16.1468 22.262 19.5889 22.262C23.0306 22.2623 25.8213 19.4727 25.8213 16.0296Z" fill="#F8F9FB"/>
<path id="Vector_3" d="M29.6011 30.0219C29.6014 30.0216 29.6016 30.0211 29.6019 30.0208L29.6056 29.979C29.6053 29.9934 29.6022 30.0075 29.6011 30.0219Z" fill="#F8F9FB"/>
<path id="Vector_4" d="M19.5916 0C8.77133 0 0 8.77133 0 19.5916C0 30.4111 8.77133 39.1821 19.5916 39.1821C30.4116 39.1821 39.183 30.4111 39.183 19.5916C39.183 8.77133 30.4116 0 19.5916 0ZM29.5983 30.0628C29.5974 30.0597 29.5982 30.0594 29.5977 30.0569C29.559 30.3478 29.3132 30.5719 29.0118 30.5719C28.6833 30.5719 28.3914 30.3072 28.3914 29.9787C27.247 26.2011 23.7406 23.4494 19.5894 23.4494C15.4378 23.4494 11.9142 26.3323 10.7695 30.1105L10.7856 29.9787C10.7856 30.3724 10.3933 30.5719 10.1664 30.5719C9.83814 30.5719 9.57285 30.3072 9.57285 29.9787C9.58865 29.9146 9.59261 29.852 9.61067 29.7868C9.6166 29.7707 9.61913 29.7532 9.62534 29.7371C10.5948 26.4198 13.1659 23.7866 16.4527 22.7464C13.9245 21.5635 12.1696 19.0046 12.1696 16.0294C12.1696 11.9325 15.4911 8.60961 19.5894 8.60961C23.6862 8.60961 27.0088 11.9323 27.0088 16.0294C27.0088 19.0046 25.2522 21.5635 22.7249 22.7458C26.0117 23.7861 28.5825 26.4198 29.552 29.7365C29.559 29.7526 29.6005 29.9626 29.6053 29.9784C29.6146 30.0109 29.6081 30.0154 29.6016 30.0202L29.5983 30.0628Z" fill="#F8F9FB"/>
</g>
</svg>
