<svg width="120" height="120" viewBox="0 0 120 120" fill="none" xmlns="http://www.w3.org/2000/svg">
<g id="Frame">
<path id="Vector" d="M2.19115 97.0357C2.19115 99.8938 8.36012 102.635 19.3409 104.656C30.3218 106.677 45.215 107.812 60.7442 107.812C76.2735 107.812 91.1667 106.677 102.148 104.656C113.128 102.635 119.297 99.8938 119.297 97.0357C119.297 94.1775 113.128 91.4364 102.148 89.4154C91.1667 87.3944 76.2735 86.259 60.7442 86.259C45.215 86.259 30.3218 87.3944 19.3409 89.4154C8.36012 91.4364 2.19115 94.1775 2.19115 97.0357Z" fill="#F1F5F9"/>
<path id="Vector_2" d="M98.8935 83.3134L69.7248 106.95L68.7189 59.1019L99.612 42.7214L98.8935 83.3134Z" fill="#F0F2F5"/>
<path id="Vector_3" d="M17.2784 91.791V73.9736L60.1695 86.259C63.0432 65.8552 68.7908 55.797 68.7908 60.395C68.7908 62.8377 69.4374 95.0958 69.7966 107.166L17.2784 91.791Z" fill="#E6E9F0"/>
<path id="Vector_4" d="M68.8626 60.4671L54.7812 57.4496L53.919 47.3914L54.6375 29.7896L99.612 42.7215L68.8626 60.4671Z" fill="#CDD2D9"/>
<path id="Vector_5" d="M54.6375 57.5931L17.9969 47.4631L54.6375 29.7175V57.5931Z" fill="#E6E9F0"/>
<path id="Vector_6" d="M110.245 64.7776L99.612 42.7214L99.3246 61.7602L110.245 64.7776Z" fill="#E1E5EC"/>
<path id="Vector_7" d="M60.4568 87.4086L7.93869 71.4591L17.8532 47.4631L68.7908 60.3951L60.4568 87.4086Z" fill="#F1F5F9"/>
<path id="Vector_8" d="M115.346 13.4089C114.484 12.1157 108.233 13.5526 105.431 17.7195C104.641 19.0127 103.779 22.8923 104.426 22.0302C106.078 19.5875 109.095 21.0244 111.394 19.0846C113.334 17.504 116.136 14.4147 115.346 13.4089Z" fill="#F0F1F4"/>
<path id="Vector_9" d="M104.641 22.7488H104.354C103.707 22.3896 105 18.6537 105.36 17.9353C107.515 14.6304 111.826 13.1217 113.981 12.978C114.843 12.978 115.346 13.2654 115.633 13.6246C116.783 15.277 111.826 19.7314 111.682 19.7314C110.532 20.7372 109.239 20.8809 108.018 21.0246C106.725 21.312 105.503 21.3838 104.713 22.5333C104.857 22.6052 104.785 22.7488 104.641 22.7488ZM114.125 13.4809C111.969 13.4809 108.018 14.9897 106.006 18.079C105.503 18.8693 105.144 20.5935 104.857 21.5275C105.862 20.5217 107.012 20.378 108.161 20.2343C109.311 20.0906 110.46 19.8751 111.466 19.0848C113.622 17.2168 115.777 14.4868 115.274 13.912C115.202 13.6246 114.771 13.4809 114.125 13.4809Z" fill="#CDD2D9"/>
<path id="Vector_10" d="M107.587 19.0129L107.084 18.6537C109.383 15.7081 112.041 13.4809 117.645 11.9003C118.148 11.7566 118.435 11.6129 118.507 11.6129C118.794 11.4692 118.794 11.4692 119.513 11.4692L119.657 12.1158C119.01 12.2595 119.01 12.2595 118.794 12.2595C118.651 12.2595 118.435 12.4032 117.932 12.5469C112.4 13.9838 109.742 16.1391 107.587 19.0129Z" fill="#CDD2D9"/>
<path id="Vector_11" d="M12.8241 96.6045C12.6804 97.8977 7.36394 99.4065 3.55619 97.6104C2.26299 97.1075 0.107665 94.6647 0.897952 95.0958C3.19697 95.9579 4.84939 93.9463 7.36394 94.2337C9.44742 94.5929 12.8241 95.5987 12.8241 96.6045Z" fill="#F0F1F4"/>
<path id="Vector_12" d="M7.07656 98.8319C5.71152 98.8319 4.27463 98.5445 2.98144 98.0416C2.1193 97.6824 -0.3234 95.7426 0.0358209 95.096C0.0358209 95.096 0.179509 94.7368 0.682419 94.9523C1.83193 95.4552 2.69406 95.096 3.84357 94.6649C4.84939 94.3057 5.85521 93.8746 7.1484 94.162C8.29791 94.3057 12.8241 95.3115 12.8241 96.8202C12.8241 97.1795 12.5367 97.6105 11.962 97.8261C10.8843 98.329 9.0882 98.8319 7.07656 98.8319ZM0.969796 95.6707C1.47271 96.3173 2.47853 97.0358 3.12512 97.4668C6.07074 98.76 9.87849 98.2571 11.3872 97.1795C11.7464 96.8921 11.8901 96.8202 11.8901 96.6766C11.8901 96.03 9.23189 95.0241 6.71734 94.6649C5.56783 94.5212 4.7057 94.9523 3.77172 95.1678C2.98144 95.527 2.1193 95.8863 0.969796 95.6707Z" fill="#CDD2D9"/>
<path id="Vector_13" d="M14.5484 96.7485C12.1057 96.1019 10.094 96.3892 8.29791 96.4611C6.50181 96.5329 5.13676 96.7485 3.62803 96.1737L3.91541 95.5271C5.20861 96.03 6.71734 95.8863 8.36976 95.8145C10.2377 95.6708 12.3212 95.4553 14.6921 96.1019L14.5484 96.7485Z" fill="#CDD2D9"/>
<path id="Vector_14" d="M83.8781 35.4651C82.0101 35.4651 79.8548 35.034 77.4839 34.1L77.7713 33.4535C81.9383 35.034 85.1713 35.2496 87.614 33.9564C86.68 33.5253 86.1053 32.9505 85.746 32.3758C84.9557 31.2263 84.8121 29.7175 85.3868 28.3525C85.8179 27.203 87.3985 26.6282 88.6917 26.5564C90.1285 26.4846 91.3499 26.9156 91.8528 27.7778C92.212 28.4962 92.4276 29.7175 90.9907 31.801C90.4878 32.5913 89.8412 33.2379 89.1946 33.7408C89.913 33.8845 90.7033 34.0282 91.781 34.0282C95.445 34.0282 98.3188 31.2263 100.259 25.7661L100.905 25.9816C98.8217 31.801 95.7324 34.7466 91.7091 34.7466C90.3441 34.7466 89.2664 34.5311 88.4043 34.2437C87.1829 35.1059 85.6742 35.4651 83.8781 35.4651ZM89.1227 27.2748H88.8353C87.5421 27.3467 86.4645 27.9214 86.1771 28.6399C85.746 29.7894 85.8179 31.0107 86.4645 32.0166C86.8237 32.5195 87.3985 33.0942 88.4761 33.5253C89.2664 33.0224 89.913 32.3039 90.4878 31.4418C91.4217 30.0049 91.7091 28.9273 91.3499 28.2088C90.847 27.4904 89.913 27.2748 89.1227 27.2748Z" fill="#CDD2D9"/>
</g>
</svg>
