<svg width="30" height="30" viewBox="0 0 30 30" fill="none" xmlns="http://www.w3.org/2000/svg">
<g id="Group 719">
<path id="Vector" d="M14.9143 13.6949L10.0476 8.65444C9.66327 8.25904 9.03506 8.25165 8.63966 8.63597C8.44751 8.81704 8.33665 9.06832 8.33295 9.33438C8.32556 9.60045 8.42903 9.85543 8.6101 10.0439L13.4768 15.0843L8.43642 19.9511C8.04102 20.3354 8.03363 20.9636 8.41794 21.359C8.59902 21.5511 8.8503 21.662 9.11636 21.6657C9.38243 21.6731 9.6374 21.5696 9.82586 21.3885L14.8663 16.5218L19.733 21.5622C20.1174 21.9576 20.7456 21.965 21.141 21.5807C21.3331 21.3996 21.444 21.1483 21.4477 20.8823C21.4551 20.6162 21.3516 20.3612 21.1705 20.1728L16.3038 15.1324L21.3442 10.2656C21.7396 9.88129 21.747 9.25309 21.3627 8.85769C21.1816 8.66553 20.9303 8.55467 20.6643 8.55098C20.3982 8.54358 20.1432 8.64705 19.9548 8.82812L14.9143 13.6949ZM4.20897 25.4201C-1.54466 19.4596 -1.37837 9.96629 4.5785 4.20897C10.5391 -1.54466 20.0324 -1.37837 25.7897 4.5785C31.5433 10.5391 31.3807 20.0324 25.4201 25.7897C19.4596 31.5433 9.96629 31.3807 4.20897 25.4201Z" fill="white"/>
</g>
</svg>
