<svg width="16" height="16" viewBox="0 0 16 16" fill="none" xmlns="http://www.w3.org/2000/svg">
<path id="Vector" fill-rule="evenodd" clip-rule="evenodd" d="M8.37978 0.310932C8.28077 0.11282 8.07475 -0.00871632 7.85354 0.000488432C7.63233 0.00970218 7.43712 0.147942 7.35489 0.353603C7.01179 1.21178 6.24066 2.35361 5.14814 2.9519C4.61253 3.24521 4.00154 3.40779 3.31284 3.35057C2.62179 3.29316 1.81474 3.01117 0.896066 2.35475C0.728114 2.23475 0.507929 2.21646 0.322496 2.30711C0.137051 2.39776 0.0161582 2.58278 0.0075632 2.78909C-0.0914571 5.16679 0.789832 8.3608 2.18101 10.9536C2.8795 12.2553 3.72324 13.4377 4.66843 14.3019C5.61003 15.163 6.70009 15.75 7.87692 15.75C9.05536 15.75 10.1349 15.1615 11.063 14.2989C11.994 13.4335 12.8198 12.2506 13.5061 10.9501C14.8743 8.35671 15.7499 5.17316 15.75 2.81254C15.75 2.60181 15.6323 2.40878 15.445 2.31235C15.2578 2.21593 15.0324 2.23231 14.8609 2.35479C13.9323 3.01845 13.1408 3.32323 12.4743 3.40562C11.8148 3.48718 11.2445 3.35523 10.7413 3.08877C9.70677 2.54106 8.92887 1.40953 8.37978 0.310932ZM11.0662 6.73222C11.1389 6.78252 11.1944 6.85362 11.2254 6.93606C11.2562 7.01874 11.2607 7.10881 11.2383 7.19413C11.2159 7.27944 11.1677 7.35587 11.1 7.41311L9.59595 8.64986C9.57351 8.66833 9.55724 8.69312 9.54923 8.72095C9.54121 8.74878 9.54184 8.77836 9.55111 8.80582L10.1818 10.6828C10.211 10.7695 10.2115 10.8633 10.1835 10.9505C10.1554 11.0376 10.1 11.1137 10.0254 11.1675C9.9508 11.2213 9.86088 11.2502 9.76863 11.25C9.67638 11.2498 9.58659 11.2204 9.51229 11.1662L7.96482 10.0405C7.93999 10.0225 7.91002 10.0128 7.87924 10.0128C7.84848 10.0128 7.81851 10.0225 7.79368 10.0405L6.24563 11.1664C6.1713 11.2205 6.08156 11.2497 5.98939 11.2498C5.89721 11.25 5.80739 11.221 5.73291 11.1671C5.65844 11.1132 5.60316 11.0373 5.57508 10.9502C5.547 10.8631 5.54757 10.7695 5.57672 10.6828L6.2074 8.80697C6.21664 8.7795 6.21729 8.74993 6.20928 8.7221C6.20127 8.69426 6.18497 8.66949 6.16252 8.65101L4.66138 7.41598C4.59291 7.35923 4.54372 7.28293 4.5205 7.19745C4.49729 7.11198 4.50118 7.0215 4.53166 6.93831C4.56213 6.85511 4.61769 6.78324 4.6908 6.73248C4.76391 6.68172 4.851 6.65452 4.94024 6.65458H6.70344C6.73339 6.65455 6.76258 6.6453 6.787 6.62812C6.81144 6.61094 6.82989 6.58667 6.83982 6.55865L7.47109 4.78453L7.47255 4.77994C7.50354 4.69772 7.5591 4.62686 7.63181 4.57683C7.70452 4.5268 7.7909 4.49999 7.87939 4.49999C7.96788 4.49999 8.05426 4.5268 8.12697 4.57683C8.19968 4.62686 8.25525 4.69772 8.28623 4.77994L8.91897 6.55865C8.92891 6.58671 8.94741 6.61101 8.97188 6.6282C8.99636 6.64538 9.02565 6.6546 9.05563 6.65458H10.8182C10.907 6.65484 10.9934 6.68193 11.0662 6.73222Z" fill="#F7F8F8"/>
</svg>
