<svg width="30" height="45" viewBox="0 0 30 45" fill="none" xmlns="http://www.w3.org/2000/svg">
<path id="Vector" d="M30 38.7113C30 39.5269 29.8369 40.2855 29.5106 40.9869C29.1843 41.6884 28.7357 42.3083 28.1648 42.8467C27.5938 43.385 26.925 43.8091 26.1582 44.1191C25.3915 44.429 24.5677 44.584 23.6868 44.584H6.31321C5.4323 44.584 4.60848 44.429 3.84176 44.1191C3.07504 43.8091 2.4062 43.385 1.83524 42.8467C1.26427 42.3083 0.815661 41.6884 0.489397 40.9869C0.163133 40.2855 0 39.5269 0 38.7113V5.9217C0 5.10604 0.163133 4.33931 0.489397 3.62153C0.815661 2.90375 1.26427 2.27569 1.83524 1.73736C2.4062 1.19902 3.07504 0.774878 3.84176 0.464927C4.60848 0.154976 5.4323 0 6.31321 0H23.6868C24.5677 0 25.3915 0.154976 26.1582 0.464927C26.925 0.774878 27.5938 1.19902 28.1648 1.73736C28.7357 2.27569 29.1843 2.90375 29.5106 3.62153C29.8369 4.33931 30 5.10604 30 5.9217V38.7113ZM26.0359 8.2708H3.91517V36.3132H26.0359V8.2708ZM14.9755 37.6835C14.2904 37.6835 13.6949 37.9282 13.1892 38.4176C12.6835 38.907 12.4307 39.5106 12.4307 40.2284C12.4307 40.9135 12.6835 41.509 13.1892 42.0147C13.6949 42.5204 14.2904 42.7732 14.9755 42.7732C15.6933 42.7732 16.2969 42.5204 16.7863 42.0147C17.2757 41.509 17.5204 40.9135 17.5204 40.2284C17.5204 39.5106 17.2757 38.907 16.7863 38.4176C16.2969 37.9282 15.6933 37.6835 14.9755 37.6835ZM18.8907 4.11093C18.8907 3.84992 18.8091 3.646 18.646 3.49918C18.4829 3.35237 18.3034 3.27896 18.1077 3.27896H11.8923C11.7292 3.27896 11.5579 3.35237 11.3785 3.49918C11.199 3.646 11.1093 3.84992 11.1093 4.11093C11.1093 4.37194 11.1909 4.57586 11.354 4.72268C11.5171 4.86949 11.6966 4.9429 11.8923 4.9429H18.1077C18.3034 4.9429 18.4829 4.86949 18.646 4.72268C18.8091 4.57586 18.8907 4.37194 18.8907 4.11093Z" fill="#4183FF"/>
</svg>
