<svg width="50" height="50" viewBox="0 0 50 50" fill="none" xmlns="http://www.w3.org/2000/svg">
<g id="Group 2551">
<rect id="Rectangle 581" width="50" height="50" rx="6" fill="#722ED1" fill-opacity="0.2"/>
<g id="Group 2533">
<path id="Vector" d="M22.1465 22.1464H27.927V27.9268H22.1465V22.1464Z" fill="#722ED1"/>
<path id="Vector_2" d="M39.0488 25.9512C39.561 25.9512 40 25.5122 40 25C40 24.4878 39.561 24.0488 39.0488 24.0488H36.1951V20.1707H39.0488C39.561 20.1707 40 19.7317 40 19.2195C40 18.7073 39.561 18.2683 39.0488 18.2683H36.1951V16.0732C36.1951 14.8293 35.1707 13.8049 33.9268 13.8049H31.7317V10.9512C31.7317 10.439 31.2927 10 30.7805 10C30.2683 10 29.8293 10.439 29.8293 10.9512V13.8049H25.9512V10.9512C25.9512 10.439 25.5122 10 25 10C24.4878 10 24.0488 10.439 24.0488 10.9512V13.8049H20.1707V10.9512C20.1707 10.439 19.7317 10 19.2195 10C18.7073 10 18.2683 10.439 18.2683 10.9512V13.8049H16.0732C14.8293 13.8049 13.8049 14.8293 13.8049 16.0732V18.2683H10.9512C10.439 18.2683 10 18.7073 10 19.2195C10 19.7317 10.439 20.1707 10.9512 20.1707H13.8049V24.0488H10.9512C10.439 24.0488 10 24.4878 10 25C10 25.5122 10.439 25.9512 10.9512 25.9512H13.8049V29.8293H10.9512C10.439 29.8293 10 30.2683 10 30.7805C10 31.2927 10.439 31.7317 10.9512 31.7317H13.8049V33.9268C13.8049 35.1707 14.8293 36.1951 16.0732 36.1951H18.2683V39.0488C18.2683 39.561 18.7073 40 19.2195 40C19.7317 40 20.1707 39.561 20.1707 39.0488V36.1951H24.0488V39.0488C24.0488 39.561 24.4878 40 25 40C25.5122 40 25.9512 39.561 25.9512 39.0488V36.1951H29.8293V39.0488C29.8293 39.561 30.2683 40 30.7805 40C31.2927 40 31.7317 39.561 31.7317 39.0488V36.1951H33.9268C35.1707 36.1951 36.1951 35.1707 36.1951 33.9268V31.7317H39.0488C39.561 31.7317 40 31.2927 40 30.7805C40 30.2683 39.561 29.8293 39.0488 29.8293H36.1951V25.9512H39.0488ZM29.7561 21.1951V28.878C29.7561 29.3902 29.3171 29.8293 28.8049 29.8293H21.1951C20.6829 29.8293 20.2439 29.3902 20.2439 28.878V21.1951C20.2439 20.6829 20.6829 20.2439 21.1951 20.2439H28.878C29.3171 20.2439 29.7561 20.6829 29.7561 21.1951Z" fill="#722ED1"/>
</g>
</g>
</svg>
