<svg width="50" height="50" viewBox="0 0 50 50" fill="none" xmlns="http://www.w3.org/2000/svg">
<g id="Group 2555">
<rect id="Rectangle 581" width="50" height="50" rx="6" fill="#0FC6C2" fill-opacity="0.2"/>
<g id="Group 2538">
<path id="Vector" d="M35.7145 29.2855C34.9705 29.2855 34.2805 29.4935 33.671 29.828L29.0285 26.411C29.1835 25.9675 29.2855 25.497 29.2855 25C29.2855 24.85 29.257 24.7085 29.242 24.562L33.5295 21.988C34.1209 22.5448 34.9022 22.8555 35.7145 22.857C36.3503 22.857 36.9718 22.6685 37.5004 22.3152C38.0291 21.962 38.4411 21.4599 38.6844 20.8725C38.9276 20.2851 38.9913 19.6388 38.8672 19.0152C38.7431 18.3916 38.4369 17.8189 37.9873 17.3693C37.5377 16.9198 36.9649 16.6137 36.3413 16.4897C35.7177 16.3657 35.0714 16.4295 34.484 16.6728C33.8967 16.9162 33.3947 17.3283 33.0415 17.857C32.6883 18.3857 32.4999 19.0072 32.5 19.643C32.5 19.793 32.525 19.9365 32.544 20.081L28.481 22.5185C27.8964 21.7021 27.0433 21.1173 26.071 20.8665V18.4195C27.9145 17.9405 29.286 16.2765 29.286 14.2855C29.2855 11.922 27.363 10 25 10C22.6365 10 20.7145 11.922 20.7145 14.2855C20.7145 16.2765 22.0855 17.9405 23.9285 18.4195V20.8665C22.8832 21.1368 21.9785 21.7918 21.3955 22.7005L17.426 20.319C17.5659 19.669 17.5008 18.9915 17.2397 18.38C16.9786 17.7685 16.5342 17.2531 15.9679 16.9046C15.4015 16.5562 14.7411 16.392 14.0775 16.4346C13.414 16.4772 12.7799 16.7245 12.2628 17.1425C11.7457 17.5605 11.3709 18.1286 11.1901 18.7684C11.0093 19.4083 11.0314 20.0885 11.2533 20.7153C11.4752 21.3421 11.8861 21.8847 12.4292 22.2683C12.9723 22.6518 13.6211 22.8575 14.286 22.857C15.017 22.8544 15.7249 22.6001 16.2905 22.137L20.7335 24.804C20.7315 24.8705 20.7145 24.9325 20.7145 25C20.7145 25.498 20.816 25.9685 20.9725 26.413L16.3815 29.857C15.7445 29.4867 15.0218 29.2895 14.285 29.285C11.922 29.2855 10 31.208 10 33.5715C10 35.935 11.922 37.857 14.2855 37.857C16.6495 37.857 18.5715 35.935 18.5715 33.5715C18.5715 32.7615 18.3325 32.0125 17.9415 31.3655L22.1705 28.194C22.674 28.6418 23.2765 28.964 23.9285 29.134V33.769C23.3032 33.9884 22.7612 34.3963 22.3774 34.9366C21.9936 35.4768 21.7868 36.1228 21.7855 36.7855C21.7855 37.2076 21.8686 37.6256 22.0302 38.0156C22.1917 38.4056 22.4285 38.76 22.727 39.0585C23.0255 39.357 23.3799 39.5938 23.7699 39.7553C24.1599 39.9169 24.5779 40 25 40C25.4221 40 25.8401 39.9169 26.2301 39.7553C26.6201 39.5938 26.9745 39.357 27.273 39.0585C27.5715 38.76 27.8083 38.4056 27.9698 38.0156C28.1314 37.6256 28.2145 37.2076 28.2145 36.7855C28.2133 36.1227 28.0065 35.4766 27.6227 34.9363C27.2389 34.3959 26.6969 33.9879 26.0715 33.7685V29.1335C26.7244 28.9639 27.3277 28.6416 27.8315 28.193L32.083 31.3215C31.6578 31.9951 31.431 32.7749 31.4285 33.5715C31.4285 35.935 33.3505 37.857 35.7145 37.857C38.078 37.857 40 35.935 40 33.5715C40 31.208 38.078 29.2855 35.7145 29.2855ZM22.857 14.2855C22.8577 13.7174 23.0837 13.1727 23.4854 12.7711C23.8872 12.3694 24.4319 12.1435 25 12.143C25.5681 12.1435 26.1128 12.3694 26.5146 12.7711C26.9163 13.1727 27.1423 13.7174 27.143 14.2855C27.1425 14.8537 26.9165 15.3985 26.5147 15.8002C26.113 16.202 25.5682 16.428 25 16.4285C24.4318 16.428 23.887 16.202 23.4853 15.8002C23.0835 15.3985 22.8575 14.8537 22.857 14.2855ZM14.2855 35.715C13.7174 35.7143 13.1727 35.4883 12.7711 35.0866C12.3694 34.6848 12.1435 34.1401 12.143 33.572C12.1435 33.0039 12.3694 32.4592 12.7711 32.0574C13.1727 31.6557 13.7174 31.4297 14.2855 31.429C14.8537 31.4295 15.3985 31.6555 15.8002 32.0573C16.202 32.459 16.428 33.0038 16.4285 33.572C16.428 34.1402 16.202 34.685 15.8002 35.0867C15.3985 35.4885 14.8537 35.7145 14.2855 35.715ZM25 27.143C24.4318 27.1425 23.887 26.9165 23.4853 26.5147C23.0835 26.113 22.8575 25.5682 22.857 25C22.8575 24.4318 23.0835 23.887 23.4853 23.4853C23.887 23.0835 24.4318 22.8575 25 22.857C25.5682 22.8575 26.113 23.0835 26.5147 23.4853C26.9165 23.887 27.1425 24.4318 27.143 25C27.1425 25.5682 26.9165 26.113 26.5147 26.5147C26.113 26.9165 25.5682 27.1425 25 27.143ZM35.7145 35.7145C35.1463 35.714 34.6015 35.488 34.1998 35.0862C33.798 34.6845 33.572 34.1397 33.5715 33.5715C33.572 33.0033 33.798 32.4585 34.1998 32.0568C34.6015 31.655 35.1463 31.429 35.7145 31.4285C36.2826 31.4292 36.8273 31.6552 37.2289 32.0569C37.6306 32.4587 37.8565 33.0034 37.857 33.5715C37.8565 34.1396 37.6306 34.6843 37.2289 35.0861C36.8273 35.4878 36.2826 35.7138 35.7145 35.7145Z" fill="#0FC6C2"/>
</g>
</g>
</svg>
