<svg width="50" height="50" viewBox="0 0 50 50" fill="none" xmlns="http://www.w3.org/2000/svg">
<g id="Group 2554">
<rect id="Rectangle 581" width="50" height="50" rx="6" fill="#0061F2" fill-opacity="0.2"/>
<g id="Group 2537">
<path id="Vector" d="M39.1896 19.096C39.0288 18.9152 38.6639 18.4867 38.1817 17.9242C36.732 16.2233 34.3011 13.3806 33.1795 12.1719C32.7174 11.6696 32.1449 11.0502 31.0299 11.01C30.9462 11.0033 30.7018 11 27.5812 11C24.0321 11 19.0198 11.01 19.0231 11.01C18.4941 11.01 17.6838 11.1339 16.7898 12.1786C16.1369 12.9453 15.1224 14.1206 14.0945 15.3092C12.782 16.8259 11.4561 18.3628 10.8333 19.1061C9.74849 20.365 9.7217 22.1229 10.7597 23.6932L10.8266 23.7869C12.0554 25.22 14.7307 28.3071 17.8914 31.9432L22.8066 37.6051C23.7106 38.6498 24.4339 38.7937 25.0098 38.7937C25.6225 38.7937 26.3122 38.6498 27.2129 37.6051L32.3022 31.749C32.7978 31.1798 33.2799 30.6207 33.7487 30.085L37.1873 26.1073C38.0009 25.1697 38.684 24.3762 39.203 23.7668C40.1338 22.6485 40.3949 20.5525 39.1896 19.096ZM26.8982 30.6609H23.2252V29.2178H26.8982V30.6609ZM31.3078 22.5615L31.2341 22.6318H26.8982V27.7345H23.2252V22.6318H18.9796L18.9059 22.5615C18.782 22.4376 18.782 22.2434 18.9059 22.1262L24.8859 16.1663C25.0098 16.0424 25.204 16.0424 25.3245 16.1663L31.3045 22.1195C31.4317 22.2434 31.4317 22.4376 31.3078 22.5615Z" fill="#0061F2"/>
</g>
</g>
</svg>
