<svg width="16" height="20" viewBox="0 0 16 20" fill="none" xmlns="http://www.w3.org/2000/svg">
<g id="Group 692">
<path id="Vector" d="M8.07897 19.3995C7.98606 19.3995 7.89527 19.3717 7.81832 19.3197L2.77299 15.9056C2.76318 15.899 2.75363 15.8919 2.74437 15.8846C1.98335 15.2802 1.36569 14.5386 0.944614 13.6805C0.522733 12.8204 0.290527 11.9024 0.290527 10.9519V2.46077C0.290527 2.2378 0.467125 2.04612 0.686151 2.00403L7.95099 0.60895C8.01054 0.597798 8.07164 0.597798 8.1312 0.60895L15.3582 2.00403C15.5772 2.04612 15.7068 2.2378 15.7068 2.46077V10.9672C15.7068 11.9131 15.5259 12.8269 15.1079 13.6834C14.6909 14.5381 14.1123 15.278 13.3576 15.8827C13.3483 15.8901 13.3466 15.8972 13.3367 15.9038L8.33728 19.3186C8.25822 19.3725 8.17053 19.3995 8.07897 19.3995ZM3.30928 15.1453L8.07785 18.372L12.8051 15.1457C13.4453 14.6297 13.9283 14.0006 14.2821 13.2755C14.6375 12.5471 14.7969 11.7705 14.7969 10.9672V2.84496L7.99866 1.53933L1.20043 2.84496V10.9519C1.20043 11.7592 1.41085 12.5394 1.76961 13.2708C2.12683 13.9988 2.66367 14.6294 3.30928 15.1453ZM7.33033 12.6855L12.0899 7.92588C12.2716 7.74419 12.2716 7.44975 12.0899 7.26808C11.9083 7.08651 11.6138 7.08651 11.4322 7.26808L7.00147 11.6988L4.72573 9.42308C4.54412 9.24152 4.2496 9.24152 4.06798 9.42308C3.88634 9.60477 3.88634 9.89922 4.06798 10.0809L6.67258 12.6855C6.71572 12.7287 6.76699 12.763 6.82342 12.7864C6.87986 12.8098 6.94036 12.8218 7.00144 12.8217C7.12048 12.8217 7.23952 12.7763 7.33033 12.6855Z" fill="#272636"/>
</g>
</svg>
