<svg width="16" height="16" viewBox="0 0 16 16" fill="none" xmlns="http://www.w3.org/2000/svg">
<g id="&#229;&#155;&#190;&#230;&#160;&#135;/&#231;&#186;&#191;/&#230;&#159;&#165;&#230;&#137;&#190; search">
<path id="&#229;&#189;&#162;&#231;&#138;&#182;" fill-rule="evenodd" clip-rule="evenodd" d="M7.75 1.5C11.2018 1.5 14 4.29822 14 7.75C14 9.18498 13.5164 10.507 12.7033 11.562L12.7135 11.5488L14.3017 13.137C14.398 13.2333 14.3993 13.3886 14.3057 13.4865L14.3017 13.4906L13.5062 14.2861C13.4099 14.3823 13.2547 14.3837 13.1568 14.2901L13.1526 14.2861L11.5664 12.6999L11.5292 12.7284C10.4796 13.5264 9.17014 14 7.75 14C4.29822 14 1.5 11.2018 1.5 7.75C1.5 4.29822 4.29822 1.5 7.75 1.5ZM7.75 2.875C5.05761 2.875 2.875 5.05761 2.875 7.75C2.875 10.4424 5.05761 12.625 7.75 12.625C10.4424 12.625 12.625 10.4424 12.625 7.75C12.625 5.05761 10.4424 2.875 7.75 2.875Z" fill="#D9D9D9"/>
</g>
</svg>
