<svg width="20" height="19" viewBox="0 0 20 19" fill="none" xmlns="http://www.w3.org/2000/svg">
<g id="Group 1">
<path id="Vector" d="M10 18.2704C8.65101 18.2704 7.34004 18.0314 6.10738 17.5594C4.91723 17.1035 3.84787 16.4512 2.92841 15.6186C2.01119 14.788 1.28859 13.8197 0.785235 12.7399C0.263982 11.6237 0 10.4366 0 9.21504C0 7.99348 0.263982 6.80635 0.785235 5.69013C1.28859 4.6124 2.00895 3.64406 2.92841 2.81145C3.84564 1.98087 4.91499 1.32653 6.10738 0.870727C7.34004 0.398714 8.65101 0.159668 10 0.159668C11.349 0.159668 12.66 0.398714 13.8926 0.870727C15.0828 1.32653 16.1521 1.97885 17.0716 2.81145C17.9888 3.64204 18.7114 4.61037 19.2148 5.69013C19.736 6.80635 20 7.99348 20 9.21504C20 10.4366 19.736 11.6237 19.2148 12.7399C18.7114 13.8177 17.9911 14.786 17.0716 15.6186C16.1544 16.4492 15.085 17.1035 13.8926 17.5594C12.66 18.0293 11.349 18.2704 10 18.2704ZM10 1.45619C7.71141 1.45619 5.55928 2.26246 3.94183 3.72915C2.32215 5.19381 1.43177 7.14264 1.43177 9.21504C1.43177 11.2874 2.32215 13.2342 3.94183 14.7009C5.55928 16.1656 7.71141 16.9739 10 16.9739C12.2886 16.9739 14.4407 16.1656 16.0582 14.7009C17.6756 13.2363 18.5682 11.2874 18.5682 9.21504C18.5682 7.14264 17.6779 5.19381 16.0582 3.72915C14.4407 2.26246 12.2886 1.45619 10 1.45619Z" fill="#7A7A7A"/>
<path id="Vector_2" d="M6.34912 7.34115C6.37149 6.64022 6.46098 6.10946 6.62205 5.74481C6.78313 5.38017 7.0404 5.05401 7.3961 4.76837C7.74957 4.48071 8.14554 4.27002 8.57955 4.13429C9.01355 3.99857 9.4744 3.92969 9.95762 3.92969C10.9353 3.92969 11.7473 4.18899 12.3983 4.70962C13.0471 5.23026 13.3737 5.92308 13.3737 6.78811C13.3737 7.17706 13.291 7.52955 13.1232 7.84558C12.9576 8.1616 12.6019 8.55461 12.0605 9.02663C11.5191 9.49864 11.159 9.8329 10.9822 10.0335C10.8055 10.232 10.6713 10.471 10.5795 10.7486C10.4878 11.0261 10.4476 11.3968 10.4587 11.8648H9.0404C9.0404 11.3198 9.08961 10.8843 9.18581 10.5602C9.28201 10.234 9.42742 9.95039 9.61982 9.7073C9.81221 9.4642 10.1612 9.10766 10.6668 8.63564C11.1724 8.16363 11.4968 7.82127 11.6422 7.60653C11.7876 7.3918 11.8592 7.07375 11.8592 6.65035C11.8592 6.22696 11.6936 5.85218 11.3603 5.52805C11.0247 5.19987 10.5415 5.03578 9.90841 5.03578C8.48111 5.03578 7.76523 5.80356 7.76523 7.34115H6.34912ZM10.5684 14.5328H9.00684V13.0458H10.5684V14.5328Z" fill="#7A7A7A"/>
</g>
</svg>
