<svg width="36" height="30" viewBox="0 0 36 30" fill="none" xmlns="http://www.w3.org/2000/svg">
<g id="Group 706">
<path id="Vector" d="M36 4.5V24.75C36 25.9435 35.5259 27.0881 34.682 27.932C33.8381 28.7759 32.6935 29.25 31.5 29.25H4.5C3.30653 29.25 2.16193 28.7759 1.31802 27.932C0.474105 27.0881 0 25.9435 0 24.75V4.5C0 3.30653 0.474105 2.16193 1.31802 1.31802C2.16193 0.474105 3.30653 0 4.5 0H31.5C32.6935 0 33.8381 0.474105 34.682 1.31802C35.5259 2.16193 36 3.30653 36 4.5ZM24.75 7.875C24.4516 7.875 24.1655 7.99353 23.9545 8.2045C23.7435 8.41548 23.625 8.70163 23.625 9C23.625 9.29837 23.7435 9.58452 23.9545 9.7955C24.1655 10.0065 24.4516 10.125 24.75 10.125H30.375C30.6734 10.125 30.9595 10.0065 31.1705 9.7955C31.3815 9.58452 31.5 9.29837 31.5 9C31.5 8.70163 31.3815 8.41548 31.1705 8.2045C30.9595 7.99353 30.6734 7.875 30.375 7.875H24.75ZM24.75 13.5C24.4516 13.5 24.1655 13.6185 23.9545 13.8295C23.7435 14.0405 23.625 14.3266 23.625 14.625C23.625 14.9234 23.7435 15.2095 23.9545 15.4205C24.1655 15.6315 24.4516 15.75 24.75 15.75H30.375C30.6734 15.75 30.9595 15.6315 31.1705 15.4205C31.3815 15.2095 31.5 14.9234 31.5 14.625C31.5 14.3266 31.3815 14.0405 31.1705 13.8295C30.9595 13.6185 30.6734 13.5 30.375 13.5H24.75ZM24.75 19.125C24.4516 19.125 24.1655 19.2435 23.9545 19.4545C23.7435 19.6655 23.625 19.9516 23.625 20.25C23.625 20.5484 23.7435 20.8345 23.9545 21.0455C24.1655 21.2565 24.4516 21.375 24.75 21.375H30.375C30.6734 21.375 30.9595 21.2565 31.1705 21.0455C31.3815 20.8345 31.5 20.5484 31.5 20.25C31.5 19.9516 31.3815 19.6655 31.1705 19.4545C30.9595 19.2435 30.6734 19.125 30.375 19.125H24.75ZM12.375 6.75C11.4799 6.75 10.6214 7.10558 9.98851 7.73851C9.35558 8.37145 9 9.22989 9 10.125V12.375C9 13.2701 9.35558 14.1286 9.98851 14.7615C10.6214 15.3944 11.4799 15.75 12.375 15.75C13.2701 15.75 14.1286 15.3944 14.7615 14.7615C15.3944 14.1286 15.75 13.2701 15.75 12.375V10.125C15.75 9.22989 15.3944 8.37145 14.7615 7.73851C14.1286 7.10558 13.2701 6.75 12.375 6.75ZM8.586 16.5319C6.8535 17.2856 5.4225 18.5422 4.5 20.0992V20.25C4.5 20.8467 4.73705 21.419 5.15901 21.841C5.58097 22.2629 6.15326 22.5 6.75 22.5H18C18.5967 22.5 19.169 22.2629 19.591 21.841C20.0129 21.419 20.25 20.8467 20.25 20.25V20.0992C19.3275 18.5422 17.8954 17.2868 16.164 16.533C15.1289 17.4787 13.777 18.0021 12.375 18C10.9728 18.0018 9.62089 17.478 8.586 16.5319Z" fill="#4183FF"/>
</g>
</svg>
