<svg width="18" height="20" viewBox="0 0 18 20" fill="none" xmlns="http://www.w3.org/2000/svg">
<g id="Group 663">
<path id="Vector" d="M17.7416 19.1408C17.7237 18.7591 17.6858 18.3797 17.621 17.9981C17.4916 17.2282 17.2595 16.4939 16.9247 15.7887C16.34 14.5545 15.5232 13.5145 14.4542 12.6687C13.6173 12.0014 12.6889 11.4993 11.669 11.1645C11.6042 11.1466 11.5395 11.1176 11.4748 11.0998C11.4927 11.0909 11.5038 11.0819 11.5127 11.0819C11.968 10.8587 12.3943 10.5798 12.7759 10.245C13.3338 9.76296 13.7891 9.18717 14.1306 8.52657C14.6126 7.59816 14.8269 6.61396 14.78 5.56504C14.7622 5.25036 14.7242 4.93345 14.6595 4.6277C14.4274 3.55869 13.9253 2.63029 13.1732 1.83355C12.8473 1.48986 12.4769 1.18411 12.0774 0.931924C11.2137 0.385145 10.2763 0.0771639 9.26313 0.0124431C8.98416 -0.00541088 8.69627 -0.00541084 8.4173 0.0213702C8.10262 0.0503829 7.78571 0.0950178 7.47996 0.170897C6.45782 0.420853 5.55843 0.905143 4.78624 1.62823C4.2841 2.10136 3.87569 2.63921 3.56994 3.25294C3.11466 4.1635 2.91157 5.11869 2.9562 6.1319C2.96513 6.41087 3.00307 6.68984 3.05887 6.95765C3.27311 8.03559 3.74624 8.97292 4.48942 9.78081C4.9804 10.3187 5.56735 10.7561 6.21679 11.0797C6.22572 11.0886 6.2458 11.0886 6.25473 11.1087C6.04941 11.1734 5.83739 11.2381 5.64323 11.323C5.43791 11.4078 5.23482 11.4903 5.04066 11.5841C3.91586 12.1219 2.94951 12.8562 2.13269 13.7935C1.69527 14.2956 1.32479 14.8424 1.01012 15.4271C0.619561 16.1525 0.351751 16.9224 0.18437 17.7303C0.110722 18.0829 0.0549284 18.4445 0.0348426 18.7993C0.0259156 18.9399 0.0169887 19.0783 0.00582996 19.2077C0.00582996 19.3372 -0.0120242 19.4577 0.0147568 19.5894C0.0616236 19.8304 0.293726 19.9978 0.543682 19.9799C0.784711 19.9621 0.981105 19.7567 0.990032 19.5157C0.998959 19.3573 0.998959 19.1899 1.00789 19.0337C1.01681 18.7926 1.04583 18.5605 1.08153 18.3195C1.15518 17.8464 1.26677 17.371 1.43415 16.918C1.80462 15.869 2.37149 14.9495 3.14367 14.1506C3.65474 13.6217 4.22161 13.1664 4.86212 12.7959C5.4089 12.4701 5.98692 12.2201 6.58949 12.0438C7.01576 11.9144 7.45318 11.8206 7.89953 11.7648C8.18743 11.7269 8.47532 11.709 8.76322 11.709C8.78107 11.709 8.80116 11.7001 8.81901 11.709H8.98639C8.99532 11.709 9.01541 11.709 9.02433 11.718C9.127 11.718 9.22965 11.718 9.33008 11.7269C9.66485 11.7448 10.0085 11.7827 10.3433 11.8474C11.0396 11.9769 11.7091 12.1911 12.3407 12.4969C13.3807 12.999 14.2712 13.6953 15.0144 14.5858C15.6549 15.3669 16.128 16.2306 16.436 17.1947C16.5944 17.6968 16.6971 18.2079 16.7529 18.7368C16.7819 18.9979 16.7908 19.2568 16.7908 19.5179C16.7998 19.788 17.014 20 17.293 20C17.563 20 17.775 19.7768 17.775 19.5179C17.7416 19.364 17.7416 19.2524 17.7416 19.1408ZM9.74742 10.6244C9.46845 10.6713 9.18948 10.6981 8.91051 10.7092H8.67841C8.48425 10.7182 8.31687 10.6802 8.13163 10.6534C7.61164 10.5798 7.11842 10.4213 6.64529 10.1803C6.43997 10.0776 6.2458 9.96605 6.06057 9.83661C5.63431 9.53978 5.25268 9.18717 4.938 8.7676C4.59431 8.32125 4.34435 7.83026 4.17697 7.29018C4.04753 6.88177 3.98058 6.47336 3.9538 6.04486C3.94487 5.7659 3.9538 5.478 3.99174 5.19903C4.07654 4.60539 4.25285 4.04745 4.54967 3.52745C4.83757 3.00745 5.20804 2.54325 5.67225 2.16162C6.07173 1.81793 6.51808 1.54789 7.00906 1.35372C7.52906 1.13948 8.06691 1.02789 8.62485 1.00111C8.8391 0.992182 9.05112 0.992182 9.26536 1.01004C9.49747 1.02789 9.72957 1.06583 9.95274 1.1127C10.4549 1.22428 10.928 1.40952 11.3744 1.67063C11.7739 1.90274 12.1265 2.1817 12.4523 2.52539C12.6375 2.73071 12.8138 2.9338 12.9723 3.16591C13.2423 3.56539 13.4544 4.00281 13.595 4.46479C13.7155 4.86427 13.7802 5.26375 13.8003 5.68109C13.8092 5.87525 13.8003 6.08057 13.7824 6.27473C13.7646 6.52469 13.7177 6.77688 13.6619 7.01791C13.5503 7.45533 13.3919 7.87267 13.1598 8.26322C12.8719 8.75421 12.5193 9.19163 12.0818 9.55318C11.756 9.83214 11.3945 10.0642 11.0039 10.2495C10.591 10.4124 10.1737 10.5508 9.74742 10.6244Z" fill="#404B63"/>
</g>
</svg>
