<svg width="37" height="30" viewBox="0 0 37 30" fill="none" xmlns="http://www.w3.org/2000/svg">
<path id="Vector" d="M25.3002 8.88354C25.7144 8.88354 26.1229 8.91384 26.5275 8.95782C25.4253 3.87858 19.9366 0.103882 13.6721 0.103882C6.66795 0.103882 0.930176 4.82837 0.930176 10.8271C0.930176 14.2891 2.83951 17.1326 6.02893 19.338L4.75473 23.1318L9.20857 20.921C10.8033 21.2327 12.0813 21.5542 13.6721 21.5542C14.0718 21.5542 14.4675 21.5347 14.8613 21.5035C14.6121 20.6611 14.4675 19.7778 14.4675 18.8622C14.4676 13.354 19.2477 8.88354 25.3002 8.88354ZM18.4504 5.46452C19.4099 5.46452 20.0451 6.08988 20.0451 7.03871C20.0451 7.9836 19.4099 8.61678 18.4504 8.61678C17.4947 8.61678 16.5371 7.9836 16.5371 7.03871C16.5371 6.08988 17.4947 5.46452 18.4504 5.46452ZM9.53297 8.61674C8.57729 8.61674 7.61382 7.98355 7.61382 7.03866C7.61382 6.08984 8.57729 5.46448 9.53297 5.46448C10.4876 5.46448 11.1237 6.08984 11.1237 7.03866C11.1237 7.9836 10.4876 8.61674 9.53297 8.61674ZM36.9302 18.7107C36.9302 13.6696 31.8324 9.5607 26.1073 9.5607C20.0451 9.5607 15.2707 13.6696 15.2707 18.7107C15.2707 23.7591 20.0451 27.8593 26.1073 27.8593C27.3756 27.8593 28.6557 27.5445 29.9298 27.228L33.4252 29.1217L32.4666 25.9714C35.0248 24.0718 36.9302 21.5541 36.9302 18.7107ZM22.5935 17.1326C21.9593 17.1326 21.3193 16.5082 21.3193 15.8711C21.3193 15.2428 21.9593 14.6106 22.5935 14.6106C23.5569 14.6106 24.1882 15.2428 24.1882 15.8711C24.1882 16.5082 23.5569 17.1326 22.5935 17.1326ZM29.6015 17.1326C28.9723 17.1326 28.3362 16.5082 28.3362 15.8711C28.3362 15.2428 28.9723 14.6106 29.6015 14.6106C30.5572 14.6106 31.1962 15.2428 31.1962 15.8711C31.1962 16.5082 30.5572 17.1326 29.6015 17.1326Z" fill="#28C445"/>
</svg>
