<svg width="27" height="28" viewBox="0 0 27 28" fill="none" xmlns="http://www.w3.org/2000/svg">
<g id="Group 696">
<path id="Vector" d="M0 14C-2.58304e-08 15.7335 0.341428 17.45 1.00479 19.0515C1.66815 20.653 2.64046 22.1081 3.86619 23.3339C5.09192 24.5596 6.54708 25.5319 8.14858 26.1953C9.75008 26.8586 11.4666 27.2 13.2 27.2C14.9334 27.2 16.6499 26.8586 18.2514 26.1953C19.8529 25.5319 21.3081 24.5596 22.5338 23.3339C23.7595 22.1081 24.7318 20.653 25.3952 19.0515C26.0586 17.45 26.4 15.7335 26.4 14C26.4 10.4992 25.0093 7.14172 22.5338 4.66624C20.0583 2.19076 16.7009 0.800049 13.2 0.800049C9.69914 0.800049 6.34167 2.19076 3.86619 4.66624C1.39071 7.14172 0 10.4992 0 14Z" fill="#F5BD0C"/>
<path id="Vector_2" d="M13.2 20.0001C13.3576 20.0001 13.5136 20.0311 13.6592 20.0914C13.8048 20.1517 13.9371 20.2401 14.0485 20.3516C14.16 20.463 14.2483 20.5953 14.3087 20.7409C14.369 20.8865 14.4 21.0425 14.4 21.2001C14.4 21.3577 14.369 21.5137 14.3087 21.6593C14.2483 21.8049 14.16 21.9372 14.0485 22.0486C13.9371 22.1601 13.8048 22.2484 13.6592 22.3088C13.5136 22.3691 13.3576 22.4001 13.2 22.4001C12.8817 22.4001 12.5765 22.2737 12.3515 22.0486C12.1264 21.8236 12 21.5184 12 21.2001C12 20.8818 12.1264 20.5766 12.3515 20.3516C12.5765 20.1265 12.8817 20.0001 13.2 20.0001ZM13.2 5.6001C13.5183 5.6001 13.8235 5.72653 14.0485 5.95157C14.2736 6.17661 14.4 6.48184 14.4 6.8001V17.0001C14.4 17.3184 14.2736 17.6236 14.0485 17.8486C13.8235 18.0737 13.5183 18.2001 13.2 18.2001C12.8817 18.2001 12.5765 18.0737 12.3515 17.8486C12.1264 17.6236 12 17.3184 12 17.0001V6.8001C12 6.48184 12.1264 6.17661 12.3515 5.95157C12.5765 5.72653 12.8817 5.6001 13.2 5.6001Z" fill="white"/>
</g>
</svg>
