<svg width="12" height="12" viewBox="0 0 12 12" fill="none" xmlns="http://www.w3.org/2000/svg">
<path id="Vector" d="M6.93537 5.76769L11.709 0.231769C11.789 0.139769 11.7217 0 11.5981 0H10.1469C10.0614 0 9.97958 0.0371538 9.92321 0.100846L5.9861 4.66723L2.049 0.100846C1.99445 0.0371538 1.91261 0 1.82532 0H0.374143C0.250484 0 0.183198 0.139769 0.263213 0.231769L5.03684 5.76769L0.263213 11.3036C0.245289 11.3241 0.23379 11.3492 0.230081 11.3759C0.226372 11.4026 0.230608 11.4297 0.242288 11.4541C0.253968 11.4785 0.2726 11.4991 0.295972 11.5135C0.319344 11.528 0.346475 11.5355 0.374143 11.5354H1.82532C1.91079 11.5354 1.99263 11.4982 2.049 11.4345L5.9861 6.86816L9.92321 11.4345C9.97776 11.4982 10.0596 11.5354 10.1469 11.5354H11.5981C11.7217 11.5354 11.789 11.3956 11.709 11.3036L6.93537 5.76769Z" fill="black" fill-opacity="0.45"/>
</svg>
