<svg width="9" height="6" viewBox="0 0 9 6" fill="none" xmlns="http://www.w3.org/2000/svg">
<path id="Vector" d="M1.10363 0.244183C0.979227 0.12268 0.814687 0.0565333 0.644673 0.0596775C0.47466 0.0628216 0.312448 0.135012 0.192211 0.261039C0.0719749 0.387066 0.00310193 0.557091 0.000102241 0.735292C-0.00289745 0.913494 0.0602103 1.08596 0.17613 1.21635L3.67613 4.88492C3.79815 5.01292 3.96337 5.08537 4.136 5.08657C4.30862 5.08777 4.47475 5.01763 4.59838 4.89134L8.09838 1.31174C8.2203 1.18369 8.28919 1.01045 8.29012 0.829543C8.29106 0.648636 8.22396 0.474628 8.10336 0.345207C7.98276 0.215786 7.81838 0.141373 7.64581 0.138085C7.47324 0.134798 7.30638 0.202901 7.18138 0.327643L4.14513 3.43217L1.10363 0.244183Z" fill="white"/>
</svg>
