<svg width="18" height="18" viewBox="0 0 18 18" fill="none" xmlns="http://www.w3.org/2000/svg">
<g id="Group 34">
<path id="Vector" d="M11.8302 13.1463L12.7564 12.4876H13.7855V5.73633H10.9863V12.5083H11.6861L11.8302 13.1463Z" fill="#8A8F98"/>
<path id="Vector_2" d="M15.6 0H2.4C1.0745 0 0 1.0745 0 2.4V15.6C0 16.9255 1.0745 18 2.4 18H15.6C16.9255 18 18 16.9255 18 15.6V2.4C18 1.0745 16.9255 0 15.6 0ZM8.6809 14.6904L6.7049 11.623L7.5695 11.0055L8.8869 12.9197C8.8868 12.9197 9.3396 13.6618 8.6809 14.6904ZM9.4425 9.2978V9.7918H6.9726C5.9846 16.1107 3 14.7626 3 14.7626C5.7376 12.6168 5.789 9.7918 5.789 9.7918H3.0721C3.0721 8.6598 4.0909 8.6802 4.0909 8.6802H5.9228V5.7162H4.9348C4.5644 7.3835 3 7.3012 3 7.3012C3 7.3012 3.6381 6.3132 4.0703 4.6254C4.5025 2.9375 5.8198 3.1229 5.8198 3.1229C5.4288 3.8227 5.2435 4.6254 5.2435 4.6254H8.475C9.2572 4.6254 9.216 5.1194 9.216 5.1194V5.6958H7.0343V8.6803H8.825C9.4837 8.6803 9.4425 9.2978 9.4425 9.2978ZM15 13.5996H13.0034L11.2745 14.6904L11.1099 13.5996H9.8542V4.6253H15V13.5996Z" fill="#8A8F98"/>
</g>
</svg>
